PathFileType	4	(X/Y/Z)	Patient4_TMGait_0pt5_01_left_04.trc.trc
DataRate	CameraRate	NumFrames	NumMarkers	Units	OrigDataRate	OrigDataStartFrame	OrigNumFrames
73.684210526316	73.684210526316	4	33	mm	73.684210526316	124	       141
Frame#	Time	L.ASIS			Sacral			L.Shoulder			Chest			R.Shoulder			Neck			R.ASIS			R.Thigh.Superior			R.Thigh.Lateral			R.Thigh.Inferior			R.Patella			L.Thigh.Superior			L.Thigh.Lateral			L.Thigh.Inferior			L.Patella			L.Shank.Superior			L.Shank.Lateral			L.Shank.Inferior			R.Shank.Superior			R.Shank.Lateral			R.Shank.Inferior			R.Heel			R.Midfoot.Superior			R.Midfoot.Lateral			R.Toe			L.Heel			L.Midfoot.Lateral			L.Midfoot.Superior			L.Toe			L.Elbow			L.Wrist			R.Elbow			R.Wrist			
		X1	Y1	Z1	X2	Y2	Z2	X3	Y3	Z3	X4	Y4	Z4	X5	Y5	Z5	X6	Y6	Z6	X7	Y7	Z7	X8	Y8	Z8	X9	Y9	Z9	X10	Y10	Z10	X11	Y11	Z11	X12	Y12	Z12	X13	Y13	Z13	X14	Y14	Z14	X15	Y15	Z15	X16	Y16	Z16	X17	Y17	Z17	X18	Y18	Z18	X19	Y19	Z19	X20	Y20	Z20	X21	Y21	Z21	X22	Y22	Z22	X23	Y23	Z23	X24	Y24	Z24	X25	Y25	Z25	X26	Y26	Z26	X27	Y27	Z27	X28	Y28	Z28	X29	Y29	Z29	X30	Y30	Z30	X31	Y31	Z31	X32	Y32	Z32	X33	Y33	Z33	

124	6.889285714286	709.999074648139	955.019013972034	367.898245653733	510.220201875500	999.266436475871	544.833156054914	660.001888722636	1431.806229075166	354.665894140484	778.413089950052	1359.986769583558	503.250520924608	711.917244250880	1430.423267701099	686.468344911108	675.142156940508	1489.834453322800	506.481354731519	746.550651914981	935.859477789764	641.900304354718	749.759091019203	724.505695701881	612.267252030696	650.289354007876	627.740621969042	675.104246228213	709.220509429969	563.950095106144	592.496908126953	690.730422118026	477.016599409496	595.504679490052	786.083512107114	765.223369258112	395.222343087579	726.840965629971	638.127602030210	323.850316238261	828.575661681049	577.391735827359	383.754326077682	852.389194903132	514.200201936190	384.369510425636	840.487687488626	443.225398926830	372.741954546154	782.752502539203	311.264581769750	318.668223886189	872.518503429781	216.399798891840	375.781015396708	652.005471459837	393.180515186585	601.830884684871	569.005898599776	299.035549091413	662.778513070053	595.759027744954	200.730251122138	597.342467796834	443.541005189534	44.404216220522	564.274738726220	614.412112981959	96.091979273787	604.742977039280	524.751435901947	35.945683516689	640.202530193156	732.992421104467	40.006570048384	635.842048763214	791.923317854267	39.133300346222	410.183892815907	868.979646313768	43.221774377537	332.939630558936	940.069976498913	117.782293772304	356.503191468001	1073.599593381380	86.366363464618	336.180630297808	567.361053002045	1088.419376709420	245.834728212596	600.116913150255	832.315038004113	212.214424815063	824.346122807480	1107.683433235583	798.708347087688	1071.210934450211	1130.469939065929	746.469477257027	
125	6.902857142857	712.271964584337	953.425987442568	366.621620522175	511.219008195451	997.973541175352	542.132676021180	660.148636384161	1430.281482530349	351.941978991548	778.439568007323	1359.238619145343	501.030718719595	711.020162119847	1429.681891639237	683.943082843106	674.590806489925	1488.708565230213	503.725066101544	747.472814591627	934.819819247967	640.852258755612	749.622835812741	723.097525652587	611.677279953116	648.996472365025	627.002795937226	674.080528656583	707.814664107943	562.621660959248	591.852205899141	688.388356550576	475.487014618406	594.563610598880	788.301103054608	763.332297351611	394.430053679369	727.998459328814	636.162019582959	323.694281810940	829.618306170905	575.516160998786	383.710032484132	852.302828953773	511.316392889494	384.791168538566	839.831516141457	439.896969066859	373.238752738636	779.863856188654	308.794745561389	319.261798573114	867.656989475685	212.383330838866	376.928845749036	648.801846630678	392.088412646190	601.134834697836	564.770708807233	298.913128474141	662.454593899608	590.296115825273	200.175022604469	597.074854752927	436.750101328785	44.476708848747	564.421198653138	607.699578389801	96.016494160959	604.772861489432	518.006114723640	35.856418913996	640.278015152214	726.286209886446	39.818264107588	635.934745330574	782.621790649802	38.012596975176	410.909258247815	859.903876716364	40.407911224843	333.671497724195	933.460172189588	112.246322120323	358.265625697730	1066.231484170741	76.435181400925	337.746754083373	566.085927569561	1087.311421895003	243.474681979355	598.550155933979	831.120781302713	210.060314727385	824.233825276582	1106.899882318692	796.015729088268	1070.920188707949	1130.470540676838	742.399364893095	
126	6.916428571429	714.565620756287	952.033452752924	365.224799121770	512.267717662152	996.817176196930	539.309649035266	660.418405435266	1428.817823243083	349.070419227059	778.585359413733	1358.586497476787	498.693491032201	710.202388631036	1429.089948758336	681.265472375486	674.187187762621	1487.693764279643	500.773662668391	748.447589491311	933.806897685132	639.623138302901	749.623299884072	721.742669210406	610.873383710182	647.887825216376	626.303854111331	672.846768897437	706.622144682371	561.339206031935	591.000363435275	686.288349831267	473.948002101120	593.455034769421	790.406749655126	761.598122750711	393.748008477791	729.394020087360	634.616069866560	323.322006437971	830.625904462399	573.911267737809	383.808673817217	852.120088519548	508.689448707137	385.205846813531	839.181207359586	436.900089370561	373.572764875608	777.217558688753	306.632205750095	319.562780894058	863.018923400085	208.796489593438	377.936493071542	645.783398034617	391.034499971609	600.297978042283	560.651185119002	298.900218612114	662.008796274227	584.921701229878	199.696921857536	596.746870748654	429.974481311907	44.716087009912	564.587184116118	601.052118259003	95.980063061838	604.789182478123	511.292920328365	35.856206236434	640.359265955645	719.641279075423	39.603027608985	636.038182216382	773.734893480726	37.135216007359	411.411096918186	851.283363120444	38.082799526501	334.253123040898	927.010708318312	107.381858054868	359.967410353012	1059.068451629931	67.596797008226	339.403624273899	565.366001323301	1086.133430198315	240.931881358068	597.580951923069	829.840119620334	207.871923129804	823.558605786049	1106.065470485243	793.533524315121	1070.310557412130	1129.206375178780	738.680923032816	
127	6.930000000000	716.785334745045	950.936885666452	363.662052647852	513.331022191420	995.885271547527	536.402229856772	660.807897538016	1427.503009790866	346.080374159245	778.857200793235	1358.080377892452	496.238354397856	709.532648142448	1428.723427872042	678.444973135372	673.970781197511	1486.863182973151	497.652009600362	749.426590071873	932.898008624005	638.166629140247	749.732476167967	720.518415282548	609.801736577233	646.994001052596	625.692732321321	671.385064156245	705.690115766529	560.165208780151	589.918480685153	684.526306162822	472.432722191771	592.201360449254	792.354061129622	760.187526453848	393.114392331368	730.989477677437	633.589898069695	322.708451883915	831.602827329813	572.699905385943	383.945922753252	851.869088305310	506.463272428249	385.521926246289	838.553735337434	434.373560751949	373.686221412636	774.862002374090	304.908318120733	319.527661993591	858.676927236932	205.805958035372	378.737587802826	643.005725536162	390.063680374180	599.324441039979	556.687702452710	299.067656216483	661.427774881478	579.678548328318	199.364872673790	596.364738077964	423.228013854007	45.249090567552	564.767898434989	594.505968900690	96.015733508605	604.801951526701	504.615244005987	36.022237739242	640.439360772187	713.044575461366	39.352924744420	636.146293957108	765.473037577714	36.551160326430	411.712229718723	843.291856796473	36.335495421475	334.673901787122	920.809929127646	103.409153414279	361.490759199429	1052.229463658834	60.254664969923	340.993690535796	565.265191447368	1084.959307493601	238.215382592116	597.232644079914	828.544058884188	205.661399366908	822.301868753976	1105.248605177049	791.260256950823	1069.323183706564	1126.590864568723	735.319911429168	
